<svg xmlns:xlink="http://www.w3.org/1999/xlink" width="83.532" xmlns="http://www.w3.org/2000/svg" height="40.895" id="screenshot-bddf6111-91eb-8097-8002-34c4403757f9" viewBox="1561.557 -8468.263 83.532 40.895" style="-webkit-print-color-adjust: exact;" fill="none" version="1.1"><g id="shape-bddf6111-91eb-8097-8002-34c4403757f9"><g class="fills" id="fills-bddf6111-91eb-8097-8002-34c4403757f9"><path fill-rule="evenodd" clip-rule="evenodd" rx="0" ry="0" d="M1561.557,-8468.263L1561.557,-8463.908L1561.557,-8460.762L1561.557,-8456.406L1561.557,-8448.905L1566.378,-8448.905L1566.378,-8456.406L1576.021,-8456.406L1576.021,-8460.762L1566.378,-8460.762L1566.378,-8463.908L1576.021,-8463.908L1576.021,-8468.263L1566.378,-8468.263L1561.557,-8468.263ZZM1582.530,-8448.905L1577.106,-8448.905L1582.530,-8468.263L1587.955,-8468.263L1582.530,-8448.905ZZM1590.124,-8468.263L1594.946,-8468.263L1594.946,-8453.260L1604.589,-8453.260L1604.589,-8448.905L1594.946,-8448.905L1590.124,-8448.905L1590.124,-8453.260L1590.124,-8468.263ZZM1620.018,-8468.263L1623.634,-8468.263L1624.839,-8468.263L1628.455,-8468.263L1628.455,-8448.905L1623.634,-8448.905L1623.634,-8463.424L1620.018,-8448.905L1617.607,-8448.905L1615.196,-8448.905L1611.580,-8463.424L1611.580,-8448.905L1606.758,-8448.905L1606.758,-8468.263L1610.375,-8468.263L1611.580,-8468.263L1615.196,-8468.263L1617.607,-8458.584L1620.018,-8468.263ZZM1645.089,-8463.908L1645.089,-8468.263L1635.446,-8468.263L1630.625,-8468.263L1630.625,-8463.908L1630.625,-8460.762L1630.625,-8456.406L1630.625,-8453.260L1630.625,-8448.905L1635.446,-8448.905L1645.089,-8448.905L1645.089,-8453.260L1635.446,-8453.260L1635.446,-8456.406L1645.089,-8456.406L1645.089,-8460.762L1635.446,-8460.762L1635.446,-8463.908L1645.089,-8463.908ZZM1561.557,-8446.727L1561.557,-8442.371L1561.557,-8439.226L1561.557,-8434.870L1561.557,-8427.368L1566.378,-8427.368L1566.378,-8434.870L1576.021,-8434.870L1576.021,-8439.226L1566.378,-8439.226L1566.378,-8442.371L1576.021,-8442.371L1576.021,-8446.727L1566.378,-8446.727L1561.557,-8446.727ZZM1582.530,-8427.368L1577.106,-8427.368L1582.530,-8446.727L1587.955,-8446.727L1582.530,-8427.368ZZM1590.124,-8446.727L1594.946,-8446.727L1594.946,-8431.724L1604.589,-8431.724L1604.589,-8427.368L1594.946,-8427.368L1590.124,-8427.368L1590.124,-8431.724L1590.124,-8446.727ZZM1620.018,-8446.727L1623.634,-8446.727L1624.839,-8446.727L1628.455,-8446.727L1628.455,-8427.368L1623.634,-8427.368L1623.634,-8441.887L1620.018,-8427.368L1617.607,-8427.368L1615.196,-8427.368L1611.580,-8441.887L1611.580,-8427.368L1606.758,-8427.368L1606.758,-8446.727L1610.375,-8446.727L1611.580,-8446.727L1615.196,-8446.727L1617.607,-8437.048L1620.018,-8446.727ZZM1630.625,-8446.727L1630.625,-8442.371L1630.625,-8439.226L1630.625,-8434.870L1630.625,-8431.724L1630.625,-8427.368L1635.446,-8427.368L1645.089,-8427.368L1645.089,-8431.724L1635.446,-8431.724L1635.446,-8434.870L1645.089,-8434.870L1645.089,-8439.226L1635.446,-8439.226L1635.446,-8442.371L1645.089,-8442.371L1645.089,-8446.727L1635.446,-8446.727L1630.625,-8446.727ZZ" style="fill: rgb(255, 255, 255);"/></g></g></svg>