<svg xmlns="http://www.w3.org/2000/svg" viewBox="0 96 960 960" fill="currentColor"><path d="M251.539 583.012h47.884v-47.883h-47.884v47.883Zm0 127.308h341.154v-47.884H251.539v47.884Zm409.038 0h47.884v-47.884h-47.884v47.884Zm-293.27-127.308h341.154v-47.883H367.307v47.883ZM164.852 871.729q-24.521 0-42.314-17.793t-17.793-42.322V340.386q0-24.529 17.793-42.322 17.793-17.794 42.314-17.794h630.296q24.521 0 42.314 17.794 17.793 17.793 17.793 42.322v471.228q0 24.529-17.793 42.322-17.793 17.793-42.314 17.793H164.852Zm.085-47.883h630.126q4.616 0 8.463-3.846 3.846-3.847 3.846-8.462V340.462q0-4.615-3.846-8.462-3.847-3.846-8.463-3.846H164.937q-4.616 0-8.463 3.846-3.846 3.847-3.846 8.462v471.076q0 4.615 3.846 8.462 3.847 3.846 8.463 3.846Zm-12.309 0V328.154v495.692Z"/></svg>
